<?xml version="1.0" encoding="UTF-8"?>
<!DOCTYPE svg PUBLIC "-//W3C//DTD SVG 1.1//EN" "http://www.w3.org/Graphics/SVG/1.1/DTD/svg11.dtd">
<!-- Creator: CorelDRAW -->
<svg xmlns="http://www.w3.org/2000/svg" xml:space="preserve" width="1000px" height="1196px" version="1.1" style="shape-rendering:geometricPrecision; text-rendering:geometricPrecision; image-rendering:optimizeQuality; fill-rule:evenodd; clip-rule:evenodd"
viewBox="0 0 293.852 350.7"
 xmlns:xlink="http://www.w3.org/1999/xlink"
 xmlns:xodm="http://www.corel.com/coreldraw/odm/2003">
 <defs>
  <style type="text/css">
   <![CDATA[
    .fil0 {fill:#3B9702;fill-rule:nonzero}
   ]]>
  </style>
 </defs>
 <g id="Слой_x0020_1">
  <metadata id="CorelCorpID_0Corel-Layer"/>
  <path id="rect915" class="fil0" d="M28.833 0.016c-7.23,0.149 -14.358,3.105 -19.593,8.154 -5.446,5.169 -8.807,12.5 -9.184,20.045 -0.107,3.3 -0.021,6.606 -0.049,9.909 0.003,94.08 -0.005,188.16 0.004,282.24 0.107,7.262 2.671,14.425 6.962,20.225 3.319,4.451 7.888,8.184 13.31,9.559 3.443,0.902 7.122,0.669 10.479,-0.486 78.186,-23.932 156.376,-47.851 234.559,-71.791 6.585,-2.085 13.09,-4.86 18.519,-9.246 4.159,-3.35 7.52,-7.856 8.993,-13.067 0.879,-2.941 1.075,-6.034 1.007,-9.092 -0.005,-72.336 0.006,-144.671 -0.006,-217.008 -0.072,-7.412 -3.006,-14.748 -8.066,-20.113 -5.111,-5.508 -12.358,-8.907 -19.818,-9.29 -3.264,-0.107 -6.532,-0.02 -9.798,-0.048 -75.65,0.003 -151.302,-0.006 -226.953,0.004 -0.122,0.002 -0.244,0.002 -0.366,0.005zm164.76 178.884l-42.973 -0.001 0 -34.385 83.797 0c0.34,1.868 0.594,4.414 0.764,7.64 0.169,3.227 0.298,6.327 0.382,9.297 0.085,2.972 0.128,5.308 0.128,7.005 0,11.546 -2.08,22.117 -6.241,31.71 -4.16,9.594 -10.018,17.872 -17.575,24.834 -7.555,6.961 -16.428,12.353 -26.616,16.173 -10.187,3.821 -21.225,5.731 -33.111,5.731 -14.264,0 -27.126,-2.292 -38.587,-6.876 -11.463,-4.585 -21.352,-11.037 -29.674,-19.358 -8.32,-8.32 -14.687,-18.083 -19.102,-29.291 -4.415,-11.207 -6.622,-23.433 -6.622,-36.677 0,-13.245 2.377,-25.471 7.132,-36.678 4.754,-11.207 11.419,-20.97 19.993,-29.291 8.575,-8.32 18.764,-14.772 30.565,-19.357 11.801,-4.585 24.748,-6.876 38.842,-6.876 9.678,0 18.89,1.273 27.635,3.819 8.745,2.549 16.725,6.029 23.942,10.443 7.216,4.416 13.202,9.424 17.956,15.027l-26.743 28.019c-6.113,-5.774 -12.693,-10.316 -19.738,-13.627 -7.048,-3.311 -14.986,-4.967 -23.816,-4.967 -7.302,0 -14.051,1.316 -20.249,3.949 -6.199,2.631 -11.631,6.367 -16.3,11.207 -4.671,4.839 -8.279,10.526 -10.826,17.064 -2.548,6.537 -3.82,13.627 -3.82,21.268 0,7.641 1.357,14.688 4.075,21.14 2.716,6.453 6.495,12.099 11.335,16.938 4.839,4.84 10.484,8.617 16.936,11.334 6.454,2.717 13.415,4.076 20.887,4.076 5.263,0 10.145,-0.807 14.645,-2.42 4.5,-1.613 8.489,-3.821 11.972,-6.622 3.48,-2.802 6.196,-6.113 8.149,-9.935 1.65,-3.225 2.602,-6.664 2.858,-10.313z"/>
 </g>
</svg>
