<?xml version="1.0" encoding="UTF-8"?>
<!DOCTYPE svg PUBLIC "-//W3C//DTD SVG 1.1//EN" "http://www.w3.org/Graphics/SVG/1.1/DTD/svg11.dtd">
<!-- Creator: CorelDRAW -->
<svg xmlns="http://www.w3.org/2000/svg" xml:space="preserve" width="1000px" height="301px" version="1.1" style="shape-rendering:geometricPrecision; text-rendering:geometricPrecision; image-rendering:optimizeQuality; fill-rule:evenodd; clip-rule:evenodd"
viewBox="0 0 225.107 67.871"
 xmlns:xlink="http://www.w3.org/1999/xlink"
 xmlns:xodm="http://www.corel.com/coreldraw/odm/2003">
 <defs>
  <style type="text/css">
   <![CDATA[
    .fil0 {fill:#3B9702;fill-rule:nonzero}
   ]]>
  </style>
 </defs>
 <g id="Слой_x0020_1">
  <metadata id="CorelCorpID_0Corel-Layer"/>
  <path class="fil0" d="M76.204 40.838c-1.685,0 -3.206,-0.271 -4.56,-0.813 -1.355,-0.542 -2.524,-1.304 -3.507,-2.288 -0.983,-0.983 -1.736,-2.137 -2.258,-3.461 -0.521,-1.325 -0.782,-2.77 -0.782,-4.335 0,-1.565 0.281,-3.01 0.843,-4.335 0.561,-1.324 1.349,-2.478 2.363,-3.462 1.013,-0.983 2.217,-1.746 3.612,-2.287 1.394,-0.542 2.925,-0.813 4.59,-0.813 1.144,0 2.233,0.15 3.266,0.451 1.034,0.301 1.977,0.713 2.83,1.234 0.853,0.522 1.56,1.114 2.122,1.777l-3.16 3.311c-0.723,-0.683 -1.5,-1.219 -2.333,-1.611 -0.833,-0.391 -1.771,-0.587 -2.815,-0.587 -0.863,0 -1.661,0.156 -2.393,0.467 -0.733,0.311 -1.375,0.752 -1.927,1.324 -0.552,0.572 -0.978,1.244 -1.279,2.017 -0.301,0.773 -0.451,1.611 -0.451,2.514 0,0.903 0.16,1.736 0.481,2.498 0.321,0.763 0.768,1.43 1.34,2.002 0.572,0.572 1.239,1.019 2.002,1.34 0.762,0.321 1.585,0.481 2.468,0.481 0.622,0 1.199,-0.095 1.731,-0.286 0.532,-0.19 1.003,-0.451 1.415,-0.782 0.411,-0.331 0.732,-0.723 0.963,-1.174 0.231,-0.452 0.346,-0.938 0.346,-1.46l0 -0.783 0.662 1.023 -5.749 0 0 -4.063 9.903 0c0.04,0.22 0.071,0.521 0.091,0.903 0.02,0.381 0.035,0.747 0.045,1.098 0.01,0.352 0.015,0.628 0.015,0.828 0,1.365 -0.246,2.614 -0.738,3.748 -0.491,1.134 -1.184,2.112 -2.077,2.935 -0.893,0.823 -1.941,1.46 -3.145,1.912 -1.204,0.451 -2.509,0.677 -3.914,0.677zm11.806 -0.301l0 -21.072 9.543 0c1.364,0 2.589,0.291 3.672,0.873 1.084,0.582 1.942,1.38 2.574,2.393 0.632,1.014 0.948,2.173 0.948,3.477 0,1.325 -0.316,2.509 -0.948,3.552 -0.632,1.044 -1.49,1.871 -2.574,2.484 -1.083,0.612 -2.308,0.918 -3.672,0.918l-4.636 0 0 7.375 -4.907 0zm11.71 0l-5.358 -9.543 5.268 -0.752 5.96 10.325 -5.87 -0.03zm-6.803 -11.379l4.184 0c0.522,0 0.978,-0.115 1.37,-0.346 0.391,-0.231 0.692,-0.547 0.903,-0.948 0.211,-0.402 0.316,-0.863 0.316,-1.385 0,-0.542 -0.125,-1.013 -0.376,-1.415 -0.251,-0.401 -0.602,-0.717 -1.054,-0.948 -0.451,-0.231 -0.988,-0.346 -1.61,-0.346l-3.733 0 0 5.388zm14.365 11.379l0 -21.072 14.69 0 0 4.395 -9.663 0 0 12.282 9.994 0 0 4.395 -15.021 0zm2.438 -8.61l0 -4.214 10.927 0 0 4.214 -10.927 0zm15.057 8.61l0 -21.072 14.69 0 0 4.395 -9.663 0 0 12.282 9.994 0 0 4.395 -15.021 0zm2.438 -8.61l0 -4.214 10.928 0 0 4.214 -10.928 0zm15.057 8.61l0 -21.072 4.606 0 11.077 15.021 -0.993 -0.12c-0.14,-1.124 -0.261,-2.173 -0.361,-3.146 -0.101,-0.973 -0.166,-1.992 -0.196,-3.055 -0.03,-1.064 -0.045,-2.288 -0.045,-3.673l0 -5.027 4.997 0 0 21.072 -4.666 0 -11.499 -15.473 1.475 0.211c0.141,1.224 0.251,2.237 0.331,3.04 0.081,0.803 0.141,1.49 0.181,2.062 0.04,0.572 0.07,1.104 0.09,1.596 0.02,0.491 0.03,1.038 0.03,1.64l0 6.924 -5.027 0zm21.349 -6.442l0 -4.425 10.355 0 0 4.425 -10.355 0zm9.939 6.442l8.338 -21.072 4.365 0 8.278 21.072 -5.177 0 -4.004 -10.687c-0.14,-0.421 -0.296,-0.872 -0.466,-1.354 -0.171,-0.482 -0.336,-0.984 -0.497,-1.505 -0.161,-0.522 -0.311,-1.024 -0.452,-1.505 -0.14,-0.482 -0.261,-0.934 -0.361,-1.355l0.873 -0.03c-0.12,0.502 -0.251,0.993 -0.391,1.475 -0.141,0.481 -0.291,0.963 -0.452,1.445 -0.16,0.481 -0.326,0.958 -0.496,1.43 -0.171,0.471 -0.347,0.958 -0.527,1.46l-3.974 10.626 -5.057 0zm3.974 -4.034l1.625 -3.913 9.633 0 1.625 3.913 -12.883 0zm17.706 4.034l0 -21.072 9.121 0c1.324,0 2.508,0.301 3.552,0.903 1.043,0.602 1.866,1.42 2.468,2.454 0.602,1.033 0.903,2.212 0.903,3.537 0,1.344 -0.301,2.558 -0.903,3.642 -0.602,1.084 -1.425,1.937 -2.468,2.559 -1.044,0.622 -2.228,0.933 -3.552,0.933l-3.974 0 0 7.044 -5.147 0zm5.087 -11.59l3.341 0c0.442,0 0.838,-0.105 1.189,-0.316 0.352,-0.21 0.638,-0.506 0.858,-0.888 0.221,-0.381 0.331,-0.812 0.331,-1.294 0,-0.502 -0.11,-0.933 -0.331,-1.294 -0.22,-0.362 -0.506,-0.643 -0.858,-0.843 -0.351,-0.201 -0.747,-0.301 -1.189,-0.301l-3.341 0 0 4.936zm12.528 11.59l0 -4.335 3.553 0 0 -12.402 -3.553 0 0 -4.335 12.252 0 0 4.335 -3.552 0 0 12.402 3.552 0 0 4.335 -12.252 0z"/>
  <path id="rect915" class="fil0" d="M5.58 0.003c-1.399,0.029 -2.779,0.601 -3.792,1.578 -1.054,1 -1.704,2.419 -1.777,3.879 -0.021,0.639 -0.004,1.279 -0.009,1.918 0,18.208 -0.001,36.415 0,54.622 0.021,1.406 0.517,2.792 1.348,3.915 0.642,0.861 1.526,1.583 2.575,1.85 0.667,0.174 1.379,0.129 2.028,-0.094 15.132,-4.632 30.264,-9.261 45.395,-13.895 1.274,-0.403 2.533,-0.94 3.584,-1.789 0.805,-0.648 1.455,-1.52 1.74,-2.529 0.171,-0.569 0.208,-1.167 0.195,-1.759 -0.001,-13.999 0.001,-27.999 -0.001,-41.998 -0.014,-1.435 -0.582,-2.854 -1.561,-3.892 -0.989,-1.066 -2.392,-1.724 -3.835,-1.798 -0.632,-0.021 -1.265,-0.004 -1.897,-0.01 -14.64,0.001 -29.281,-0.001 -43.922,0.001 -0.024,0 -0.047,0.001 -0.071,0.001zm31.886 34.62l-8.316 -0.001 0 -6.654 16.217 0c0.065,0.361 0.115,0.854 0.147,1.478 0.033,0.625 0.058,1.225 0.074,1.8 0.017,0.575 0.025,1.027 0.025,1.355 0,2.235 -0.403,4.28 -1.208,6.137 -0.805,1.857 -1.939,3.459 -3.401,4.806 -1.462,1.347 -3.179,2.391 -5.151,3.13 -1.971,0.74 -4.107,1.109 -6.408,1.109 -2.76,0 -5.249,-0.444 -7.467,-1.331 -2.219,-0.887 -4.132,-2.136 -5.743,-3.746 -1.61,-1.61 -2.842,-3.5 -3.696,-5.669 -0.855,-2.168 -1.282,-4.534 -1.282,-7.097 0,-2.564 0.46,-4.93 1.38,-7.099 0.92,-2.168 2.21,-4.058 3.869,-5.668 1.66,-1.61 3.631,-2.859 5.916,-3.746 2.283,-0.887 4.789,-1.331 7.516,-1.331 1.873,0 3.656,0.246 5.348,0.739 1.693,0.493 3.237,1.167 4.634,2.021 1.396,0.855 2.555,1.824 3.475,2.909l-5.176 5.422c-1.183,-1.118 -2.456,-1.997 -3.82,-2.637 -1.363,-0.641 -2.9,-0.962 -4.608,-0.962 -1.414,0 -2.72,0.255 -3.919,0.764 -1.2,0.51 -2.251,1.233 -3.155,2.169 -0.903,0.937 -1.602,2.038 -2.095,3.302 -0.493,1.266 -0.739,2.638 -0.739,4.117 0,1.478 0.263,2.842 0.788,4.091 0.526,1.248 1.258,2.341 2.194,3.278 0.937,0.936 2.029,1.667 3.278,2.193 1.249,0.526 2.596,0.789 4.042,0.789 1.019,0 1.963,-0.156 2.834,-0.468 0.871,-0.313 1.643,-0.74 2.317,-1.282 0.673,-0.542 1.199,-1.183 1.577,-1.923 0.319,-0.624 0.504,-1.289 0.553,-1.995z"/>
 </g>
</svg>
